<?xml version="1.0" encoding="UTF-8" standalone="no"?>
<!-- Created with Inkscape (http://www.inkscape.org/) -->

<svg
   width="80.355743mm"
   height="95.871567mm"
   viewBox="0 0 80.355743 95.871567"
   version="1.1"
   id="svg639"
   xmlns="http://www.w3.org/2000/svg"
   xmlns:svg="http://www.w3.org/2000/svg">
  <defs
     id="defs636" />
  <g
     id="layer1"
     transform="translate(-18.448379,-10.98806)">
    <g
       id="g922"
       transform="translate(-46.372995,-113.33478)">
      <path
         d="m 103.41,219.69 c -5.8574,-2.8071 -15.54,-10.873 -20.554,-17.123 -8.4331,-10.511 -13.554,-22 -16.256,-36.469 -0.61313,-3.2837 -0.94886,-7.2042 -1.3892,-16.222 -0.49913,-10.223 -0.51449,-13.203 -0.06891,-13.372 0.21381,-0.0812 2.4952,-0.48891 5.0697,-0.9064 13.6,-2.2054 20.623,-4.4565 32.562,-10.438 2.405,-1.2048 2.0374,-1.2525 6.2745,0.81404 11.41,5.5651 17.35,7.4133 30.893,9.6133 1.4204,0.23065 3.1637,0.5438 3.8739,0.6957 l 1.2913,0.27615 0.0503,1.1299 c 0.18503,4.1624 -0.92338,23 -1.6052,27.279 -3.0098,18.889 -11.655,34.733 -25.401,46.551 -5.2062,4.476 -7.3971,6.017 -11.166,7.8534 -2.1324,1.0391 -2.0779,1.0343 -3.5755,0.3166 z m 2.9787,-3.3031 c 6.1816,-2.8968 15.622,-10.943 20.558,-17.522 7.8262,-10.432 12.201,-20.542 14.378,-33.229 0.75313,-4.3896 1.7534,-20.732 1.5769,-25.763 l -0.0537,-1.5295 -1.5334,-0.2868 c -0.84339,-0.1578 -2.6956,-0.46995 -4.116,-0.69376 -11.476,-1.8083 -17.455,-3.6872 -28.486,-8.9523 -3.9955,-1.9071 -3.5582,-1.8595 -5.9706,-0.65024 -10.907,5.4675 -17.902,7.6897 -30.755,9.7708 -2.4858,0.4025 -4.6474,0.77143 -4.8036,0.81989 -0.32192,0.0998 -0.3193,0.30415 0.13497,10.557 0.44397,10.021 0.80438,14.248 1.5136,17.752 4.0571,20.047 12.361,33.554 28.093,45.694 2.0354,1.5708 7.3043,4.6699 7.9393,4.6699 0.0905,0 0.7763,-0.2867 1.524,-0.63714 z"
         fill="#2d4159"
         stroke-width="0"
         id="path10"
         style="fill:#ffffff;fill-opacity:1" />
      <g
         fill="none"
         stroke="#2d4159"
         stroke-linecap="round"
         id="g18">
        <path
           d="m 117.12,167.89 h 4.71837 5.83663"
           stroke-width="1.5366"
           id="path12"
           style="stroke:#ffffff;stroke-opacity:1" />
        <path
           d="M 82.309,167.91 H 98.145"
           stroke-width="1.5366"
           id="path14"
           style="stroke:#ffffff;stroke-opacity:1" />
        <path
           d="m 117.21,173.98 c 3.4115,-0.009 6.822,-0.0178 8.5265,2.5195 1.7045,2.5373 1.7043,7.6198 1.704,12.701"
           stroke-linejoin="round"
           stroke-width="2.0479"
           id="path16"
           style="stroke:#ffffff;stroke-opacity:1" />
      </g>
      <a
         transform="matrix(1.3101,0,0,1.3101,-32.778,-49.614)"
         stroke-width="2.2613"
         id="a22">
        <path
           d="m 102.94,183.03 c -3.5765,-0.48481 -6.4446,-3.0846 -7.2878,-6.6062 -0.24955,-1.0422 -0.24955,-15.526 0,-16.569 0.78951,-3.2971 3.3213,-5.7688 6.6636,-6.5054 0.90662,-0.1998 4.7806,-0.1998 5.6872,0 3.3422,0.73656 5.8741,3.2083 6.6636,6.5054 0.24956,1.0422 0.24956,15.526 0,16.569 -0.78643,3.2843 -3.2115,5.8758 -6.5248,6.608 -0.62799,0.13877 -4.4,0.10692 -5.2017,-0.002 z m 4.8475,-1.2499 c 3.0163,-0.68834 5.2113,-2.9219 5.7878,-5.8896 0.10298,-0.53012 0.11102,-0.88647 0.11102,-4.9205 v -4.349 h -17.054 v 4.349 c 0,4.034 0.008,4.3904 0.11102,4.9205 0.60507,3.1148 3.0017,5.4265 6.1674,5.9488 0.72013,0.1188 4.2865,0.0756 4.8767,-0.0591 z m -3.2122,-17.428 c 0,-1.1003 0,-1.1003 -0.1459,-1.1668 -0.23048,-0.10501 -0.66958,-0.53783 -0.80808,-0.7965 -0.1736,-0.32424 -0.22738,-3.2901 -0.0683,-3.7689 0.11347,-0.34163 0.48553,-0.78056 0.79582,-0.93886 l 0.2265,-0.11555 v -3.2264 l -0.77385,0.0317 c -3.5466,0.14528 -6.388,2.5676 -7.058,6.0171 -0.0973,0.50068 -0.11102,0.84993 -0.11102,2.818 v 2.2465 h 7.9429 z m 9.111,-1.1462 c 0,-1.9681 -0.0138,-2.3173 -0.11102,-2.818 -0.6701,-3.4496 -3.5114,-5.8718 -7.058,-6.0171 l -0.77385,-0.0317 v 3.2264 l 0.2265,0.11555 c 0.30422,0.1552 0.67838,0.59148 0.79118,0.92253 0.1538,0.45138 0.13354,3.2291 -0.0267,3.6574 -0.12251,0.32742 -0.54083,0.78574 -0.84273,0.9233 -0.14828,0.0676 -0.14828,0.0676 -0.14828,1.1678 v 1.1003 h 7.9429 z"
           fill="#2d4159"
           stroke-width="2.2613"
           id="path20"
           style="fill:#ffffff;fill-opacity:1" />
      </a>
      <g
         fill="none"
         stroke="#2d4159"
         stroke-linecap="round"
         stroke-linejoin="round"
         stroke-width="2.0479"
         id="g30"
         style="stroke:#ffffff;stroke-opacity:1">
        <path
           d="m 92.778,174.02 c -3.4115,-0.009 -6.8219,-0.0178 -8.5265,2.5195 -1.7046,2.5373 -1.7043,7.6198 -1.704,12.701"
           id="path24"
           style="stroke:#ffffff;stroke-opacity:1" />
        <path
           d="m 117.22,163.17 c 3.4115,0.009 6.822,0.0178 8.5265,-2.5195 1.7046,-2.5373 1.7043,-7.6198 1.704,-12.701"
           id="path26"
           style="stroke:#ffffff;stroke-opacity:1" />
        <path
           d="m 92.793,163.13 c -3.4115,0.009 -6.8219,0.0178 -8.5265,-2.5195 -1.7046,-2.5373 -1.7043,-7.6198 -1.704,-12.701"
           id="path28"
           style="stroke:#ffffff;stroke-opacity:1" />
      </g>
    </g>
  </g>
</svg>
